<svg width="120" height="40" viewBox="0 0 166 40" fill="none" xmlns="http://www.w3.org/2000/svg">
<rect width="166" height="40" rx="7" fill="black"/>
<path d="M42.2451 24.5266C42.001 24.1977 41.66 23.9539 41.2648 23.8381L41.2515 23.835C41.083 23.7869 40.8869 23.7541 40.6847 23.7449H40.6786C40.4641 23.7326 40.2507 23.7336 40.0362 23.7336H35.7982L30.1969 13.7254C29.4851 14.4734 28.9919 15.4375 28.8254 16.5102L28.8213 16.54C28.7764 16.8145 28.7509 17.1322 28.7509 17.4549C28.7509 18.5307 29.0358 19.54 29.5331 20.4109L29.5178 20.3822L36.2486 32.4088C36.3558 32.6004 36.462 32.792 36.5795 32.9764C36.6887 33.1527 36.8082 33.3043 36.942 33.4436L36.941 33.4426C37.2218 33.7295 37.5935 33.9252 38.0091 33.9836L38.0194 33.9846C38.0908 33.9949 38.1746 34 38.2583 34C38.6045 34 38.9272 33.9037 39.2029 33.7367L39.1948 33.7418C39.5512 33.5256 39.8259 33.2059 39.9821 32.8258L39.9872 32.8135C40.0791 32.5932 40.1322 32.3361 40.1322 32.0676C40.1322 31.8945 40.1098 31.7254 40.0689 31.5656L40.072 31.5799C40.0158 31.3668 39.9443 31.1824 39.8545 31.0082L39.8616 31.0236C39.7656 30.8258 39.6574 30.6352 39.5501 30.4447L37.9979 27.6711H40.0342C40.2486 27.6711 40.4621 27.6721 40.6755 27.6598C40.8828 27.6506 41.0789 27.6178 41.2658 27.5656L41.2474 27.5697C41.6559 27.4498 41.998 27.2059 42.238 26.8822L42.241 26.877C42.481 26.5533 42.625 26.1455 42.625 25.7049C42.625 25.2643 42.481 24.8555 42.2369 24.5266L42.241 24.5318L42.2451 24.5266ZM15.9735 28.375L14.9625 30.2961C14.8584 30.4949 14.7532 30.6926 14.6582 30.8986C14.5775 31.0635 14.5071 31.2561 14.457 31.4559L14.4529 31.4764C14.4152 31.6291 14.3937 31.8043 14.3937 31.9836C14.3937 32.2623 14.4458 32.5297 14.5408 32.7746L14.5357 32.7592C14.6888 33.1639 14.9584 33.4959 15.3026 33.7213L15.3097 33.7264C15.5691 33.8955 15.8857 33.9959 16.2268 33.9959C16.3095 33.9959 16.3902 33.9898 16.4688 33.9785L16.4596 33.9795C16.8804 33.915 17.2449 33.7111 17.5125 33.417L17.5135 33.416C17.6432 33.2736 17.7606 33.1148 17.8597 32.9447L17.8668 32.9314C17.9822 32.7387 18.0854 32.54 18.1906 32.3412L19.657 29.5543C19.0933 28.7141 18.1497 28.1691 17.0785 28.1691C16.6812 28.1691 16.3013 28.2439 15.9521 28.3811L15.9735 28.375ZM23.2425 23.7367L31.0404 9.60553C31.1476 9.41189 31.2549 9.21926 31.3519 9.01844C31.4346 8.85758 31.5061 8.67008 31.5571 8.47439L31.5612 8.45492C31.6 8.30635 31.6215 8.13627 31.6215 7.96004C31.6215 7.6875 31.5684 7.42828 31.4714 7.19057L31.4765 7.20389C31.3172 6.80635 31.0414 6.48258 30.6932 6.26742L30.685 6.2623C30.4175 6.09734 30.0948 6 29.7486 6C29.6649 6 29.5821 6.00615 29.5004 6.01742L29.5096 6.01639C29.0838 6.07684 28.711 6.27561 28.4323 6.56455C28.2995 6.70389 28.18 6.85963 28.0779 7.02561L28.0707 7.03791C27.9533 7.22541 27.8471 7.41906 27.7399 7.6127L27.2466 8.50615L26.7534 7.6127C26.6462 7.41906 26.541 7.22439 26.4235 7.03791C26.3143 6.85963 26.1948 6.70492 26.061 6.56455L26.062 6.56557C25.7832 6.27561 25.4115 6.07684 24.9949 6.01742L24.9847 6.01639C24.9132 6.00615 24.8305 6.00102 24.7467 6.00102C24.4005 6.00102 24.0768 6.09836 23.8021 6.26742L23.8103 6.26332C23.4539 6.48361 23.1781 6.80738 23.0229 7.1916L23.0178 7.20492C22.9259 7.4293 22.8728 7.68852 22.8728 7.96107C22.8728 8.13627 22.8953 8.30738 22.9361 8.46926L22.9331 8.45492C22.9892 8.67008 23.0607 8.85758 23.1506 9.03484L23.1434 9.01844C23.2394 9.21824 23.3477 9.41189 23.4549 9.60553L25.048 12.4918L18.8431 23.7367H14.5908C14.3774 23.7367 14.1629 23.7357 13.9495 23.749C13.7422 23.7582 13.5461 23.791 13.3592 23.8453L13.3776 23.8412C12.9681 23.9631 12.627 24.21 12.3881 24.5379L12.384 24.543C12.144 24.8719 12 25.2848 12 25.7305C12 26.1762 12.144 26.5891 12.3881 26.9242L12.384 26.918C12.626 27.251 12.9671 27.4979 13.3633 27.6158L13.3766 27.6189C13.5451 27.668 13.7412 27.7008 13.9423 27.71H13.9485C14.1619 27.7223 14.3764 27.7213 14.5898 27.7213H31.3039C31.3498 27.626 31.3927 27.5113 31.4275 27.3924L31.4315 27.376C31.5112 27.1271 31.5571 26.8402 31.5571 26.543C31.5571 25.0195 30.347 23.7787 28.8387 23.7357H28.8346L23.2425 23.7367Z" fill="white"/>
<path d="M60.2848 25.5H58.4212L62.6087 13.8636H64.6371L68.8246 25.5H66.9609L63.6712 15.9773H63.5803L60.2848 25.5ZM60.5973 20.9432H66.6428V22.4205H60.5973V20.9432ZM70.3686 28.7727V16.7727H72.0277V18.1875H72.1697C72.2682 18.0057 72.4103 17.7955 72.5959 17.5568C72.7815 17.3182 73.0391 17.1098 73.3686 16.9318C73.6982 16.75 74.1338 16.6591 74.6754 16.6591C75.38 16.6591 76.0088 16.8371 76.5618 17.1932C77.1148 17.5492 77.5485 18.0625 77.8629 18.733C78.1811 19.4034 78.3402 20.2102 78.3402 21.1534C78.3402 22.0966 78.183 22.9053 77.8686 23.5795C77.5542 24.25 77.1224 24.767 76.5732 25.1307C76.0239 25.4905 75.397 25.6705 74.6925 25.6705C74.1622 25.6705 73.7285 25.5814 73.3913 25.4034C73.058 25.2254 72.7966 25.017 72.6072 24.7784C72.4179 24.5398 72.272 24.3277 72.1697 24.142H72.0675V28.7727H70.3686ZM72.0334 21.1364C72.0334 21.75 72.1224 22.2879 72.3004 22.75C72.4785 23.2121 72.736 23.5739 73.0732 23.8352C73.4103 24.0928 73.8232 24.2216 74.3118 24.2216C74.8194 24.2216 75.2436 24.0871 75.5845 23.8182C75.9254 23.5455 76.183 23.1761 76.3572 22.7102C76.5353 22.2443 76.6243 21.7197 76.6243 21.1364C76.6243 20.5606 76.5372 20.0436 76.3629 19.5852C76.1925 19.1269 75.9349 18.7652 75.5902 18.5C75.2493 18.2348 74.8232 18.1023 74.3118 18.1023C73.8194 18.1023 73.4027 18.2292 73.0618 18.483C72.7247 18.7367 72.469 19.0909 72.2947 19.5455C72.1205 20 72.0334 20.5303 72.0334 21.1364ZM80.2436 28.7727V16.7727H81.9027V18.1875H82.0447C82.1432 18.0057 82.2853 17.7955 82.4709 17.5568C82.6565 17.3182 82.9141 17.1098 83.2436 16.9318C83.5732 16.75 84.0088 16.6591 84.5504 16.6591C85.255 16.6591 85.8838 16.8371 86.4368 17.1932C86.9898 17.5492 87.4235 18.0625 87.7379 18.733C88.0561 19.4034 88.2152 20.2102 88.2152 21.1534C88.2152 22.0966 88.058 22.9053 87.7436 23.5795C87.4292 24.25 86.9974 24.767 86.4482 25.1307C85.8989 25.4905 85.272 25.6705 84.5675 25.6705C84.0372 25.6705 83.6035 25.5814 83.2663 25.4034C82.933 25.2254 82.6716 25.017 82.4822 24.7784C82.2929 24.5398 82.147 24.3277 82.0447 24.142H81.9425V28.7727H80.2436ZM81.9084 21.1364C81.9084 21.75 81.9974 22.2879 82.1754 22.75C82.3535 23.2121 82.611 23.5739 82.9482 23.8352C83.2853 24.0928 83.6982 24.2216 84.1868 24.2216C84.6944 24.2216 85.1186 24.0871 85.4595 23.8182C85.8004 23.5455 86.058 23.1761 86.2322 22.7102C86.4103 22.2443 86.4993 21.7197 86.4993 21.1364C86.4993 20.5606 86.4122 20.0436 86.2379 19.5852C86.0675 19.1269 85.8099 18.7652 85.4652 18.5C85.1243 18.2348 84.6982 18.1023 84.1868 18.1023C83.6944 18.1023 83.2777 18.2292 82.9368 18.483C82.5997 18.7367 82.344 19.0909 82.1697 19.5455C81.9955 20 81.9084 20.5303 81.9084 21.1364ZM100.836 16.9205C100.775 16.3826 100.525 15.9659 100.086 15.6705C99.6465 15.3712 99.0935 15.2216 98.4268 15.2216C97.9496 15.2216 97.5367 15.2973 97.1882 15.4489C96.8397 15.5966 96.5689 15.8011 96.3757 16.0625C96.1863 16.3201 96.0916 16.6136 96.0916 16.9432C96.0916 17.2197 96.156 17.4583 96.2848 17.6591C96.4174 17.8598 96.5897 18.0284 96.8018 18.1648C97.0178 18.2973 97.2488 18.4091 97.495 18.5C97.7412 18.5871 97.978 18.6591 98.2053 18.7159L99.3416 19.0114C99.7128 19.1023 100.094 19.2254 100.484 19.3807C100.874 19.536 101.236 19.7405 101.569 19.9943C101.902 20.2481 102.171 20.5625 102.376 20.9375C102.584 21.3125 102.688 21.7614 102.688 22.2841C102.688 22.9432 102.518 23.5284 102.177 24.0398C101.84 24.5511 101.349 24.9545 100.705 25.25C100.065 25.5455 99.2905 25.6932 98.3814 25.6932C97.5102 25.6932 96.7564 25.5549 96.12 25.2784C95.4837 25.0019 94.9856 24.6098 94.6257 24.1023C94.2659 23.5909 94.067 22.9848 94.0291 22.2841H95.7905C95.8246 22.7045 95.9609 23.0549 96.1996 23.3352C96.442 23.6117 96.7507 23.8182 97.1257 23.9545C97.5045 24.0871 97.9193 24.1534 98.37 24.1534C98.8662 24.1534 99.3075 24.0758 99.6939 23.9205C100.084 23.7614 100.391 23.5417 100.614 23.2614C100.838 22.9773 100.95 22.6458 100.95 22.267C100.95 21.9223 100.851 21.6402 100.654 21.4205C100.461 21.2008 100.198 21.0189 99.8643 20.875C99.5348 20.7311 99.1617 20.6042 98.745 20.4943L97.37 20.1193C96.4382 19.8655 95.6996 19.4924 95.1541 19C94.6125 18.5076 94.3416 17.8561 94.3416 17.0455C94.3416 16.375 94.5234 15.7898 94.8871 15.2898C95.2507 14.7898 95.7431 14.4015 96.3643 14.125C96.9856 13.8447 97.6863 13.7045 98.4666 13.7045C99.2545 13.7045 99.9496 13.8428 100.552 14.1193C101.158 14.3958 101.635 14.7765 101.984 15.2614C102.332 15.7424 102.514 16.2955 102.529 16.9205H100.836ZM108.724 16.7727V18.1364H103.957V16.7727H108.724ZM105.235 14.6818H106.934V22.9375C106.934 23.267 106.983 23.5152 107.082 23.6818C107.18 23.8447 107.307 23.9564 107.462 24.017C107.621 24.0739 107.794 24.1023 107.979 24.1023C108.116 24.1023 108.235 24.0928 108.337 24.0739C108.44 24.0549 108.519 24.0398 108.576 24.0284L108.883 25.4318C108.784 25.4697 108.644 25.5076 108.462 25.5455C108.281 25.5871 108.053 25.6098 107.781 25.6136C107.334 25.6212 106.917 25.5417 106.531 25.375C106.144 25.2083 105.832 24.9508 105.593 24.6023C105.354 24.2538 105.235 23.8163 105.235 23.2898V14.6818ZM114.185 25.6761C113.367 25.6761 112.653 25.4886 112.043 25.1136C111.433 24.7386 110.96 24.214 110.623 23.5398C110.286 22.8655 110.117 22.0777 110.117 21.1761C110.117 20.2708 110.286 19.4792 110.623 18.8011C110.96 18.1231 111.433 17.5966 112.043 17.2216C112.653 16.8466 113.367 16.6591 114.185 16.6591C115.004 16.6591 115.718 16.8466 116.327 17.2216C116.937 17.5966 117.411 18.1231 117.748 18.8011C118.085 19.4792 118.254 20.2708 118.254 21.1761C118.254 22.0777 118.085 22.8655 117.748 23.5398C117.411 24.214 116.937 24.7386 116.327 25.1136C115.718 25.4886 115.004 25.6761 114.185 25.6761ZM114.191 24.25C114.721 24.25 115.161 24.1098 115.509 23.8295C115.858 23.5492 116.115 23.1761 116.282 22.7102C116.452 22.2443 116.538 21.7311 116.538 21.1705C116.538 20.6136 116.452 20.1023 116.282 19.6364C116.115 19.1667 115.858 18.7898 115.509 18.5057C115.161 18.2216 114.721 18.0795 114.191 18.0795C113.657 18.0795 113.214 18.2216 112.862 18.5057C112.513 18.7898 112.254 19.1667 112.083 19.6364C111.916 20.1023 111.833 20.6136 111.833 21.1705C111.833 21.7311 111.916 22.2443 112.083 22.7102C112.254 23.1761 112.513 23.5492 112.862 23.8295C113.214 24.1098 113.657 24.25 114.191 24.25ZM120.15 25.5V16.7727H121.792V18.1591H121.883C122.042 17.6894 122.322 17.3201 122.724 17.0511C123.129 16.7784 123.587 16.642 124.099 16.642C124.205 16.642 124.33 16.6458 124.474 16.6534C124.621 16.661 124.737 16.6705 124.82 16.6818V18.3068C124.752 18.2879 124.631 18.267 124.457 18.2443C124.282 18.2178 124.108 18.2045 123.934 18.2045C123.532 18.2045 123.174 18.2898 122.86 18.4602C122.549 18.6269 122.303 18.8598 122.121 19.1591C121.94 19.4545 121.849 19.7917 121.849 20.1705V25.5H120.15ZM129.739 25.6761C128.879 25.6761 128.139 25.4924 127.518 25.125C126.9 24.7538 126.423 24.233 126.086 23.5625C125.753 22.8883 125.586 22.0985 125.586 21.1932C125.586 20.2992 125.753 19.5114 126.086 18.8295C126.423 18.1477 126.893 17.6155 127.495 17.233C128.101 16.8504 128.809 16.6591 129.62 16.6591C130.112 16.6591 130.59 16.7405 131.052 16.9034C131.514 17.0663 131.929 17.322 132.296 17.6705C132.664 18.0189 132.953 18.4716 133.165 19.0284C133.378 19.5814 133.484 20.2538 133.484 21.0455V21.6477H126.546V20.375H131.819C131.819 19.928 131.728 19.5322 131.546 19.1875C131.364 18.839 131.109 18.5644 130.779 18.3636C130.453 18.1629 130.071 18.0625 129.631 18.0625C129.154 18.0625 128.737 18.1799 128.381 18.4148C128.029 18.6458 127.756 18.9489 127.563 19.3239C127.374 19.6951 127.279 20.0985 127.279 20.5341V21.5284C127.279 22.1117 127.381 22.608 127.586 23.017C127.794 23.4261 128.084 23.7386 128.455 23.9545C128.826 24.1667 129.26 24.2727 129.756 24.2727C130.078 24.2727 130.372 24.2273 130.637 24.1364C130.902 24.0417 131.131 23.9015 131.325 23.7159C131.518 23.5303 131.665 23.3011 131.768 23.0284L133.376 23.3182C133.247 23.7917 133.016 24.2064 132.683 24.5625C132.353 24.9148 131.938 25.1894 131.438 25.3864C130.942 25.5795 130.376 25.6761 129.739 25.6761Z" fill="white"/>
</svg>
