<svg width="20" height="20" viewBox="0 0 20 20" fill="none" xmlns="http://www.w3.org/2000/svg">
<g clip-path="url(#clip0_1_372)">
<path d="M0 10.6264V9.37855C0.0147687 9.24878 0.0319844 9.12898 0.046753 8.99421C0.268039 6.82285 1.18267 4.78417 2.65152 3.18815C4.12038 1.59213 6.06311 0.526121 8.18431 0.152204C8.53629 0.0923086 8.89319 0.0523541 9.24764 0.00244141H10.4784C10.5276 0.00244141 10.5768 0.0298641 10.6261 0.0348554C12.1429 0.136539 13.6126 0.610143 14.909 1.41495C16.1355 2.1439 17.1897 3.13628 17.9976 4.32234C18.8056 5.50839 19.3476 6.85936 19.5857 8.28044C19.6522 8.6423 19.6867 9.01169 19.7359 9.37855V10.6264C19.7088 10.8759 19.6817 11.1005 19.6497 11.3401C19.3654 13.4393 18.4323 15.3933 16.9844 16.9213C15.5366 18.4494 13.6484 19.473 11.5909 19.8452C11.2266 19.9126 10.8525 19.95 10.4907 19.9999H9.25996C9.01381 19.97 8.76768 19.945 8.53631 19.9101C6.46958 19.6184 4.5469 18.6711 3.04361 17.2039C1.54031 15.7367 0.533515 13.8247 0.167392 11.7419C0.0861638 11.3726 0.0492289 10.9982 0 10.6264ZM9.863 16.5035C9.93684 16.4212 10.0008 16.3588 10.055 16.2889C10.7934 15.3905 11.5319 14.507 12.2358 13.5862C13.0346 12.5663 13.7152 11.4568 14.2641 10.2794C14.6161 9.49831 14.8499 8.69725 14.7121 7.82378C14.4044 5.88217 13.3706 4.49209 11.5516 3.81328C9.73257 3.13447 8.05879 3.48637 6.59915 4.77162C5.32166 5.89715 4.38385 8.09827 5.4595 10.2894C5.93567 11.254 6.48541 12.1794 7.10373 13.0571C7.95699 14.2591 8.87828 15.4098 9.863 16.5035Z" fill="white"/>
<path d="M9.84535 16.4361C8.86003 15.3429 7.9387 14.1921 7.08608 12.9896C6.46776 12.1119 5.918 11.1865 5.44182 10.222C4.35879 8.0308 5.30398 5.82969 6.58147 4.70416C8.04111 3.41891 9.72474 3.07199 11.5339 3.74581C13.3431 4.41963 14.3867 5.81471 14.6944 7.75631C14.8322 8.62978 14.5984 9.43334 14.2464 10.212C13.6975 11.3894 13.017 12.4989 12.2182 13.5187C11.5167 14.4396 10.7684 15.323 10.0374 16.2215C9.98566 16.2914 9.92166 16.3563 9.84535 16.4361ZM8.12234 8.6098C8.11894 8.98117 8.2243 9.34519 8.42506 9.65582C8.62583 9.96645 8.91299 10.2097 9.25018 10.3548C9.58738 10.4999 9.95944 10.5403 10.3193 10.4709C10.6791 10.4014 11.0105 10.2254 11.2716 9.96485C11.5327 9.70434 11.7117 9.37116 11.7859 9.00748C11.8601 8.64379 11.8262 8.26594 11.6885 7.92179C11.5508 7.57764 11.3155 7.28265 11.0124 7.07415C10.7093 6.86566 10.3519 6.75305 9.98564 6.75056C9.49576 6.7479 9.02479 6.94193 8.67563 7.29033C8.32647 7.63873 8.12754 8.11313 8.12234 8.6098Z" fill="black"/>
<path d="M8.01174 8.51013C8.01174 7.28478 8.91506 6.29898 10.0153 6.30397C11.1156 6.30897 12.0017 7.31971 11.9845 8.56503C11.9673 9.81035 11.0713 10.7687 9.97104 10.7587C8.87077 10.7487 8.00682 9.73299 8.01174 8.51013Z" fill="white"/>
</g>
<defs>
<clipPath id="clip0_1_372">
<rect width="19.726" height="20" fill="white"/>
</clipPath>
</defs>
</svg>
