<svg width="20" height="20" viewBox="0 0 20 20" fill="none" xmlns="http://www.w3.org/2000/svg">
<g clip-path="url(#clip0_1_365)">
<path d="M-3.8147e-05 10.6304V9.3809C0.0120743 9.31777 0.0250541 9.25464 0.034571 9.19151C0.106381 8.71628 0.142722 8.23315 0.255195 7.76845C1.00271 4.67857 2.79275 2.4129 5.60025 1.00124C7.45951 0.0665614 9.4399 -0.203496 11.4834 0.148981C14.0426 0.587385 16.1294 1.86928 17.7023 3.95871C19.3462 6.14635 19.9829 8.63035 19.6334 11.3546C19.3878 13.3242 18.5485 15.1691 17.23 16.6374C15.7649 18.3302 13.7709 19.4621 11.5812 19.8439C11.217 19.9114 10.8475 19.9491 10.4798 19.9999H9.24697C9.00645 19.9692 8.76507 19.9438 8.52541 19.9122C6.59909 19.6508 4.79458 18.8093 3.3456 17.4966C1.66117 16.0102 0.533949 13.9806 0.153966 11.75C0.0882124 11.3774 0.0510073 11.0021 -3.8147e-05 10.6304ZM9.85001 14.5471C11.5227 14.5471 13.1982 14.5471 14.8767 14.5471C15.7098 14.5471 16.2194 14.0289 16.2203 13.1854V6.82412C16.2203 5.98063 15.7098 5.46419 14.8749 5.46419H4.86053C4.01439 5.46419 3.50739 5.97888 3.50739 6.83552C3.50739 8.93986 3.5221 11.0503 3.49961 13.1573C3.49096 13.9245 4.02563 14.5681 4.88389 14.5549C6.53724 14.5286 8.19406 14.5471 9.85001 14.5471Z" fill="white"/>
<path d="M9.85004 14.5472C8.19409 14.5472 6.53728 14.5288 4.88133 14.5551C4.02567 14.5683 3.49099 13.9247 3.49704 13.1575C3.51954 11.0531 3.50396 8.94266 3.50483 6.83569C3.50483 5.97904 4.01182 5.46436 4.85797 5.46436H14.8724C15.7073 5.46436 16.2169 5.9808 16.2177 6.82429V13.1855C16.2177 14.029 15.7073 14.5463 14.8741 14.5472C13.2003 14.5484 11.5256 14.5484 9.85004 14.5472ZM4.52834 7.02069V13.1382C4.52834 13.474 4.57418 13.5196 4.90814 13.5196H14.8075C15.1536 13.5196 15.1986 13.4775 15.1986 13.1303V7.02069C15.0757 7.11802 14.9918 7.18465 14.9087 7.25217L10.2489 11.0005C9.97116 11.2241 9.75833 11.2241 9.48579 11.0058L6.25956 8.40955L4.52834 7.02069ZM14.1967 6.50688H5.57952C5.58471 6.56387 5.61932 6.57965 5.64787 6.60333C7.01139 7.69817 8.37318 8.79477 9.73323 9.89312C9.84657 9.98518 9.90627 9.95975 10.0092 9.87996C11.0676 9.0242 12.1278 8.17048 13.1896 7.3188L14.1967 6.50688Z" fill="white"/>
<path d="M4.52834 7.02051L6.25869 8.46023L9.48493 11.1468C9.75746 11.373 9.9703 11.3721 10.248 11.1406C11.8019 9.8488 13.3552 8.55638 14.9079 7.26338L15.1977 7.02402V13.337C15.1977 13.6965 15.1544 13.7395 14.8066 13.7395C11.5068 13.7395 8.20707 13.7395 4.90729 13.7395C4.57333 13.7395 4.52747 13.693 4.52747 13.3449V7.02051H4.52834Z" fill="black"/>
<path d="M14.1963 6.50488L13.1892 7.31681C12.1285 8.17024 11.0684 9.02395 10.0088 9.87796C9.91018 9.95775 9.84615 9.98318 9.73282 9.89112C8.37449 8.79043 7.0127 7.69384 5.64745 6.60133C5.6189 6.57766 5.58429 6.56188 5.5791 6.50488H14.1963Z" fill="black"/>
</g>
<defs>
<clipPath id="clip0_1_365">
<rect width="19.726" height="20" fill="white"/>
</clipPath>
</defs>
</svg>
