<svg width="120" height="40" viewBox="0 0 166 40" fill="none" xmlns="http://www.w3.org/2000/svg">
<rect width="166" height="40" rx="7" fill="black"/>
<mask id="mask0_1_348" style="mask-type:alpha" maskUnits="userSpaceOnUse" x="4" y="8" width="23" height="24">
<path d="M25.2754 18.5234C26.4466 19.1679 26.4466 20.832 25.2754 21.4765L6.54425 31.7839C5.40356 32.4116 4 31.5969 4 30.3073V9.69268C4 8.40299 5.40356 7.58845 6.54425 8.21614L25.2754 18.5234Z" fill="#C4C4C4"/>
</mask>
<g mask="url(#mask0_1_348)">
<path d="M4.58567 31.5815L16.2696 19.8319L4.7781 8.27588C4.31964 8.56977 3.99977 9.07717 3.99977 9.69286V30.3074C3.99977 30.8328 4.2326 31.2792 4.58567 31.5815Z" fill="url(#paint0_linear_1_348)"/>
<path d="M25.2746 18.5235C26.4459 19.168 26.4459 20.832 25.2746 21.4765L20.5491 24.0769L16.2691 19.8316L20.3309 15.803L25.2746 18.5235Z" fill="url(#paint1_linear_1_348)"/>
<path d="M20.5507 24.0769L16.2706 19.8318L4.58662 31.5813C5.10042 32.0213 5.86888 32.156 6.54499 31.7839L20.5507 24.0769Z" fill="url(#paint2_linear_1_348)"/>
<path d="M4.7775 8.27568L16.269 19.8317L20.3308 15.803L6.5434 8.21614C5.94727 7.8881 5.27936 7.95397 4.7775 8.27568Z" fill="url(#paint3_linear_1_348)"/>
</g>
<path d="M38.7447 17.5398C38.6349 17.1951 38.4872 16.8864 38.3015 16.6136C38.1197 16.3371 37.9019 16.1023 37.6481 15.9091C37.3943 15.7121 37.1046 15.5625 36.7788 15.4602C36.4568 15.358 36.1027 15.3068 35.7163 15.3068C35.061 15.3068 34.4701 15.4754 33.9436 15.8125C33.4171 16.1496 33.0004 16.6439 32.6936 17.2955C32.3906 17.9432 32.239 18.7367 32.239 19.6761C32.239 20.6193 32.3925 21.4167 32.6993 22.0682C33.0061 22.7197 33.4265 23.214 33.9606 23.5511C34.4947 23.8883 35.1027 24.0568 35.7845 24.0568C36.4171 24.0568 36.9682 23.928 37.4379 23.6705C37.9114 23.4129 38.2769 23.0492 38.5345 22.5795C38.7959 22.1061 38.9265 21.5492 38.9265 20.9091L39.3811 20.9943H36.0515V19.5455H40.6254V20.8693C40.6254 21.8466 40.4171 22.6951 40.0004 23.4148C39.5875 24.1307 39.0156 24.6837 38.2845 25.0739C37.5572 25.464 36.7239 25.6591 35.7845 25.6591C34.7315 25.6591 33.8072 25.4167 33.0118 24.9318C32.2201 24.447 31.6027 23.7595 31.1595 22.8693C30.7163 21.9754 30.4947 20.9148 30.4947 19.6875C30.4947 18.7595 30.6235 17.9261 30.8811 17.1875C31.1387 16.4489 31.5004 15.822 31.9663 15.3068C32.436 14.7879 32.9871 14.392 33.6197 14.1193C34.2561 13.8428 34.9512 13.7045 35.705 13.7045C36.3337 13.7045 36.919 13.7973 37.4606 13.983C38.0061 14.1686 38.4909 14.4318 38.9152 14.7727C39.3432 15.1136 39.6974 15.5189 39.9777 15.9886C40.258 16.4545 40.4474 16.9716 40.5459 17.5398H38.7447ZM46.3939 25.6761C45.5757 25.6761 44.8617 25.4886 44.2518 25.1136C43.642 24.7386 43.1685 24.214 42.8314 23.5398C42.4943 22.8655 42.3257 22.0777 42.3257 21.1761C42.3257 20.2708 42.4943 19.4792 42.8314 18.8011C43.1685 18.1231 43.642 17.5966 44.2518 17.2216C44.8617 16.8466 45.5757 16.6591 46.3939 16.6591C47.2121 16.6591 47.9261 16.8466 48.5359 17.2216C49.1458 17.5966 49.6193 18.1231 49.9564 18.8011C50.2935 19.4792 50.4621 20.2708 50.4621 21.1761C50.4621 22.0777 50.2935 22.8655 49.9564 23.5398C49.6193 24.214 49.1458 24.7386 48.5359 25.1136C47.9261 25.4886 47.2121 25.6761 46.3939 25.6761ZM46.3996 24.25C46.9299 24.25 47.3693 24.1098 47.7177 23.8295C48.0662 23.5492 48.3238 23.1761 48.4905 22.7102C48.6609 22.2443 48.7461 21.7311 48.7461 21.1705C48.7461 20.6136 48.6609 20.1023 48.4905 19.6364C48.3238 19.1667 48.0662 18.7898 47.7177 18.5057C47.3693 18.2216 46.9299 18.0795 46.3996 18.0795C45.8655 18.0795 45.4223 18.2216 45.07 18.5057C44.7215 18.7898 44.4621 19.1667 44.2916 19.6364C44.1249 20.1023 44.0416 20.6136 44.0416 21.1705C44.0416 21.7311 44.1249 22.2443 44.2916 22.7102C44.4621 23.1761 44.7215 23.5492 45.07 23.8295C45.4223 24.1098 45.8655 24.25 46.3996 24.25ZM56.0345 25.6761C55.2163 25.6761 54.5023 25.4886 53.8925 25.1136C53.2826 24.7386 52.8091 24.214 52.472 23.5398C52.1349 22.8655 51.9663 22.0777 51.9663 21.1761C51.9663 20.2708 52.1349 19.4792 52.472 18.8011C52.8091 18.1231 53.2826 17.5966 53.8925 17.2216C54.5023 16.8466 55.2163 16.6591 56.0345 16.6591C56.8527 16.6591 57.5667 16.8466 58.1765 17.2216C58.7864 17.5966 59.2599 18.1231 59.597 18.8011C59.9341 19.4792 60.1027 20.2708 60.1027 21.1761C60.1027 22.0777 59.9341 22.8655 59.597 23.5398C59.2599 24.214 58.7864 24.7386 58.1765 25.1136C57.5667 25.4886 56.8527 25.6761 56.0345 25.6761ZM56.0402 24.25C56.5705 24.25 57.0099 24.1098 57.3584 23.8295C57.7068 23.5492 57.9644 23.1761 58.1311 22.7102C58.3015 22.2443 58.3868 21.7311 58.3868 21.1705C58.3868 20.6136 58.3015 20.1023 58.1311 19.6364C57.9644 19.1667 57.7068 18.7898 57.3584 18.5057C57.0099 18.2216 56.5705 18.0795 56.0402 18.0795C55.5061 18.0795 55.0629 18.2216 54.7106 18.5057C54.3621 18.7898 54.1027 19.1667 53.9322 19.6364C53.7656 20.1023 53.6822 20.6136 53.6822 21.1705C53.6822 21.7311 53.7656 22.2443 53.9322 22.7102C54.1027 23.1761 54.3621 23.5492 54.7106 23.8295C55.0629 24.1098 55.5061 24.25 56.0402 24.25ZM65.6581 28.9545C64.9649 28.9545 64.3683 28.8636 63.8683 28.6818C63.3721 28.5 62.9668 28.2595 62.6524 27.9602C62.338 27.661 62.1032 27.3333 61.9479 26.9773L63.4081 26.375C63.5104 26.5417 63.6467 26.7178 63.8172 26.9034C63.9914 27.0928 64.2263 27.2538 64.5217 27.3864C64.821 27.5189 65.2054 27.5852 65.6751 27.5852C66.3191 27.5852 66.8513 27.428 67.2717 27.1136C67.6922 26.803 67.9024 26.3068 67.9024 25.625V23.9091H67.7944C67.6922 24.0947 67.5444 24.3011 67.3513 24.5284C67.1619 24.7557 66.9005 24.9527 66.5672 25.1193C66.2338 25.286 65.8001 25.3693 65.266 25.3693C64.5766 25.3693 63.9554 25.2083 63.4024 24.8864C62.8532 24.5606 62.4175 24.0814 62.0956 23.4489C61.7774 22.8125 61.6183 22.0303 61.6183 21.1023C61.6183 20.1742 61.7755 19.3788 62.0899 18.7159C62.4081 18.053 62.8437 17.5455 63.3967 17.1932C63.9497 16.8371 64.5766 16.6591 65.2774 16.6591C65.8191 16.6591 66.2566 16.75 66.5899 16.9318C66.9232 17.1098 67.1827 17.3182 67.3683 17.5568C67.5577 17.7955 67.7035 18.0057 67.8058 18.1875H67.9308V16.7727H69.5956V25.6932C69.5956 26.4432 69.4213 27.0587 69.0729 27.5398C68.7244 28.0208 68.2528 28.3769 67.6581 28.608C67.0672 28.839 66.4005 28.9545 65.6581 28.9545ZM65.641 23.9602C66.1297 23.9602 66.5425 23.8466 66.8797 23.6193C67.2206 23.3883 67.4782 23.0587 67.6524 22.6307C67.8304 22.1989 67.9194 21.6818 67.9194 21.0795C67.9194 20.4924 67.8323 19.9754 67.6581 19.5284C67.4838 19.0814 67.2282 18.733 66.891 18.483C66.5539 18.2292 66.1372 18.1023 65.641 18.1023C65.1297 18.1023 64.7035 18.2348 64.3626 18.5C64.0217 18.7614 63.7641 19.1174 63.5899 19.5682C63.4194 20.0189 63.3342 20.5227 63.3342 21.0795C63.3342 21.6515 63.4213 22.1534 63.5956 22.5852C63.7698 23.017 64.0274 23.3542 64.3683 23.5966C64.713 23.839 65.1372 23.9602 65.641 23.9602ZM73.5729 13.8636V25.5H71.874V13.8636H73.5729ZM79.6197 25.6761C78.7599 25.6761 78.0193 25.4924 77.3981 25.125C76.7807 24.7538 76.3034 24.233 75.9663 23.5625C75.633 22.8883 75.4663 22.0985 75.4663 21.1932C75.4663 20.2992 75.633 19.5114 75.9663 18.8295C76.3034 18.1477 76.7731 17.6155 77.3754 17.233C77.9815 16.8504 78.6898 16.6591 79.5004 16.6591C79.9928 16.6591 80.4701 16.7405 80.9322 16.9034C81.3943 17.0663 81.8091 17.322 82.1765 17.6705C82.544 18.0189 82.8337 18.4716 83.0459 19.0284C83.258 19.5814 83.364 20.2538 83.364 21.0455V21.6477H76.4265V20.375H81.6993C81.6993 19.928 81.6084 19.5322 81.4265 19.1875C81.2447 18.839 80.989 18.5644 80.6595 18.3636C80.3337 18.1629 79.9512 18.0625 79.5118 18.0625C79.0345 18.0625 78.6178 18.1799 78.2618 18.4148C77.9095 18.6458 77.6368 18.9489 77.4436 19.3239C77.2542 19.6951 77.1595 20.0985 77.1595 20.5341V21.5284C77.1595 22.1117 77.2618 22.608 77.4663 23.017C77.6746 23.4261 77.9644 23.7386 78.3356 23.9545C78.7068 24.1667 79.1406 24.2727 79.6368 24.2727C79.9587 24.2727 80.2523 24.2273 80.5175 24.1364C80.7826 24.0417 81.0118 23.9015 81.205 23.7159C81.3981 23.5303 81.5459 23.3011 81.6481 23.0284L83.2561 23.3182C83.1273 23.7917 82.8962 24.2064 82.5629 24.5625C82.2334 24.9148 81.8186 25.1894 81.3186 25.3864C80.8224 25.5795 80.2561 25.6761 79.6197 25.6761ZM89.6197 25.5V13.8636H93.7675C94.6728 13.8636 95.4228 14.0284 96.0175 14.358C96.6121 14.6875 97.0572 15.1383 97.3527 15.7102C97.6481 16.2784 97.7959 16.9186 97.7959 17.6307C97.7959 18.3466 97.6462 18.9905 97.347 19.5625C97.0515 20.1307 96.6046 20.5814 96.0061 20.9148C95.4114 21.2443 94.6633 21.4091 93.7618 21.4091H90.9095V19.9205H93.6027C94.1746 19.9205 94.6387 19.822 94.9947 19.625C95.3508 19.4242 95.6121 19.1515 95.7788 18.8068C95.9455 18.4621 96.0288 18.0701 96.0288 17.6307C96.0288 17.1913 95.9455 16.8011 95.7788 16.4602C95.6121 16.1193 95.3489 15.8523 94.989 15.6591C94.633 15.4659 94.1633 15.3693 93.58 15.3693H91.3754V25.5H89.6197ZM101.417 13.8636V25.5H99.7177V13.8636H101.417ZM106.242 25.6932C105.689 25.6932 105.189 25.5909 104.742 25.3864C104.295 25.178 103.941 24.8769 103.679 24.483C103.422 24.089 103.293 23.6061 103.293 23.0341C103.293 22.5417 103.388 22.1364 103.577 21.8182C103.767 21.5 104.022 21.2481 104.344 21.0625C104.666 20.8769 105.026 20.7367 105.424 20.642C105.821 20.5473 106.227 20.4754 106.64 20.4261C107.162 20.3655 107.587 20.3163 107.912 20.2784C108.238 20.2367 108.475 20.1705 108.623 20.0795C108.77 19.9886 108.844 19.8409 108.844 19.6364V19.5966C108.844 19.1004 108.704 18.7159 108.424 18.4432C108.147 18.1705 107.734 18.0341 107.185 18.0341C106.613 18.0341 106.162 18.161 105.833 18.4148C105.507 18.6648 105.282 18.9432 105.157 19.25L103.56 18.8864C103.749 18.3561 104.026 17.928 104.39 17.6023C104.757 17.2727 105.179 17.0341 105.657 16.8864C106.134 16.7348 106.636 16.6591 107.162 16.6591C107.511 16.6591 107.88 16.7008 108.27 16.7841C108.664 16.8636 109.032 17.0114 109.373 17.2273C109.717 17.4432 109.999 17.7519 110.219 18.1534C110.439 18.5511 110.549 19.0682 110.549 19.7045V25.5H108.89V24.3068H108.821C108.712 24.5265 108.547 24.7424 108.327 24.9545C108.107 25.1667 107.825 25.3428 107.481 25.483C107.136 25.6231 106.723 25.6932 106.242 25.6932ZM106.611 24.3295C107.081 24.3295 107.482 24.2367 107.816 24.0511C108.153 23.8655 108.409 23.6231 108.583 23.3239C108.761 23.0208 108.85 22.697 108.85 22.3523V21.2273C108.789 21.2879 108.672 21.3447 108.498 21.3977C108.327 21.447 108.132 21.4905 107.912 21.5284C107.693 21.5625 107.479 21.5947 107.27 21.625C107.062 21.6515 106.888 21.6742 106.748 21.6932C106.418 21.7348 106.117 21.8049 105.844 21.9034C105.575 22.0019 105.359 22.1439 105.196 22.3295C105.037 22.5114 104.958 22.7538 104.958 23.0568C104.958 23.4773 105.113 23.7955 105.424 24.0114C105.734 24.2235 106.13 24.3295 106.611 24.3295ZM113.573 28.7727C113.319 28.7727 113.088 28.7519 112.88 28.7102C112.671 28.6723 112.516 28.6307 112.414 28.5852L112.823 27.1932C113.133 27.2765 113.41 27.3125 113.652 27.3011C113.895 27.2898 114.109 27.1989 114.294 27.0284C114.484 26.858 114.651 26.5795 114.794 26.1932L115.005 25.6136L111.811 16.7727H113.63L115.84 23.5455H115.931L118.141 16.7727H119.965L116.368 26.6648C116.202 27.1193 115.99 27.5038 115.732 27.8182C115.474 28.1364 115.168 28.375 114.811 28.5341C114.455 28.6932 114.043 28.7727 113.573 28.7727ZM128.101 18.9034L126.561 19.1761C126.497 18.9792 126.395 18.7917 126.255 18.6136C126.118 18.4356 125.933 18.2898 125.698 18.1761C125.463 18.0625 125.169 18.0057 124.817 18.0057C124.336 18.0057 123.935 18.1136 123.613 18.3295C123.291 18.5417 123.13 18.8163 123.13 19.1534C123.13 19.4451 123.238 19.6799 123.454 19.858C123.669 20.036 124.018 20.1818 124.499 20.2955L125.885 20.6136C126.688 20.7992 127.287 21.0852 127.681 21.4716C128.075 21.858 128.272 22.3598 128.272 22.9773C128.272 23.5 128.12 23.9659 127.817 24.375C127.518 24.7803 127.099 25.0985 126.561 25.3295C126.027 25.5606 125.408 25.6761 124.704 25.6761C123.726 25.6761 122.929 25.4678 122.311 25.0511C121.694 24.6307 121.315 24.0341 121.175 23.2614L122.817 23.0114C122.919 23.4394 123.13 23.7633 123.448 23.983C123.766 24.1989 124.181 24.3068 124.692 24.3068C125.249 24.3068 125.694 24.1913 126.027 23.9602C126.361 23.7254 126.527 23.4394 126.527 23.1023C126.527 22.8295 126.425 22.6004 126.221 22.4148C126.02 22.2292 125.711 22.089 125.294 21.9943L123.817 21.6705C123.003 21.4848 122.401 21.1894 122.01 20.7841C121.624 20.3788 121.431 19.8655 121.431 19.2443C121.431 18.7292 121.575 18.2784 121.863 17.892C122.151 17.5057 122.548 17.2045 123.056 16.9886C123.563 16.7689 124.145 16.6591 124.8 16.6591C125.743 16.6591 126.486 16.8636 127.027 17.2727C127.569 17.678 127.927 18.2216 128.101 18.9034ZM134.213 16.7727V18.1364H129.446V16.7727H134.213ZM130.725 14.6818H132.424V22.9375C132.424 23.267 132.473 23.5152 132.571 23.6818C132.67 23.8447 132.797 23.9564 132.952 24.017C133.111 24.0739 133.284 24.1023 133.469 24.1023C133.606 24.1023 133.725 24.0928 133.827 24.0739C133.929 24.0549 134.009 24.0398 134.066 24.0284L134.373 25.4318C134.274 25.4697 134.134 25.5076 133.952 25.5455C133.77 25.5871 133.543 25.6098 133.27 25.6136C132.823 25.6212 132.407 25.5417 132.02 25.375C131.634 25.2083 131.321 24.9508 131.083 24.6023C130.844 24.2538 130.725 23.8163 130.725 23.2898V14.6818ZM139.675 25.6761C138.857 25.6761 138.143 25.4886 137.533 25.1136C136.923 24.7386 136.45 24.214 136.113 23.5398C135.776 22.8655 135.607 22.0777 135.607 21.1761C135.607 20.2708 135.776 19.4792 136.113 18.8011C136.45 18.1231 136.923 17.5966 137.533 17.2216C138.143 16.8466 138.857 16.6591 139.675 16.6591C140.493 16.6591 141.207 16.8466 141.817 17.2216C142.427 17.5966 142.901 18.1231 143.238 18.8011C143.575 19.4792 143.743 20.2708 143.743 21.1761C143.743 22.0777 143.575 22.8655 143.238 23.5398C142.901 24.214 142.427 24.7386 141.817 25.1136C141.207 25.4886 140.493 25.6761 139.675 25.6761ZM139.681 24.25C140.211 24.25 140.651 24.1098 140.999 23.8295C141.347 23.5492 141.605 23.1761 141.772 22.7102C141.942 22.2443 142.027 21.7311 142.027 21.1705C142.027 20.6136 141.942 20.1023 141.772 19.6364C141.605 19.1667 141.347 18.7898 140.999 18.5057C140.651 18.2216 140.211 18.0795 139.681 18.0795C139.147 18.0795 138.704 18.2216 138.351 18.5057C138.003 18.7898 137.743 19.1667 137.573 19.6364C137.406 20.1023 137.323 20.6136 137.323 21.1705C137.323 21.7311 137.406 22.2443 137.573 22.7102C137.743 23.1761 138.003 23.5492 138.351 23.8295C138.704 24.1098 139.147 24.25 139.681 24.25ZM145.64 25.5V16.7727H147.282V18.1591H147.373C147.532 17.6894 147.812 17.3201 148.213 17.0511C148.619 16.7784 149.077 16.642 149.588 16.642C149.695 16.642 149.82 16.6458 149.963 16.6534C150.111 16.661 150.227 16.6705 150.31 16.6818V18.3068C150.242 18.2879 150.121 18.267 149.946 18.2443C149.772 18.2178 149.598 18.2045 149.424 18.2045C149.022 18.2045 148.664 18.2898 148.35 18.4602C148.039 18.6269 147.793 18.8598 147.611 19.1591C147.429 19.4545 147.338 19.7917 147.338 20.1705V25.5H145.64ZM155.229 25.6761C154.369 25.6761 153.629 25.4924 153.008 25.125C152.39 24.7538 151.913 24.233 151.576 23.5625C151.242 22.8883 151.076 22.0985 151.076 21.1932C151.076 20.2992 151.242 19.5114 151.576 18.8295C151.913 18.1477 152.383 17.6155 152.985 17.233C153.591 16.8504 154.299 16.6591 155.11 16.6591C155.602 16.6591 156.079 16.7405 156.542 16.9034C157.004 17.0663 157.418 17.322 157.786 17.6705C158.153 18.0189 158.443 18.4716 158.655 19.0284C158.867 19.5814 158.973 20.2538 158.973 21.0455V21.6477H152.036V20.375H157.309C157.309 19.928 157.218 19.5322 157.036 19.1875C156.854 18.839 156.598 18.5644 156.269 18.3636C155.943 18.1629 155.561 18.0625 155.121 18.0625C154.644 18.0625 154.227 18.1799 153.871 18.4148C153.519 18.6458 153.246 18.9489 153.053 19.3239C152.864 19.6951 152.769 20.0985 152.769 20.5341V21.5284C152.769 22.1117 152.871 22.608 153.076 23.017C153.284 23.4261 153.574 23.7386 153.945 23.9545C154.316 24.1667 154.75 24.2727 155.246 24.2727C155.568 24.2727 155.862 24.2273 156.127 24.1364C156.392 24.0417 156.621 23.9015 156.814 23.7159C157.008 23.5303 157.155 23.3011 157.258 23.0284L158.865 23.3182C158.737 23.7917 158.506 24.2064 158.172 24.5625C157.843 24.9148 157.428 25.1894 156.928 25.3864C156.432 25.5795 155.865 25.6761 155.229 25.6761Z" fill="white"/>
<defs>
<linearGradient id="paint0_linear_1_348" x1="12.0092" y1="15.2683" x2="4.06537" y2="23.2775" gradientUnits="userSpaceOnUse">
<stop stop-color="#00C3FF"/>
<stop offset="1" stop-color="#1BE2FA"/>
</linearGradient>
<linearGradient id="paint1_linear_1_348" x1="16.2691" y1="19.8317" x2="26.8347" y2="19.8317" gradientUnits="userSpaceOnUse">
<stop stop-color="#FFCE00"/>
<stop offset="1" stop-color="#FFEA00"/>
</linearGradient>
<linearGradient id="paint2_linear_1_348" x1="4.34159" y1="33.0156" x2="18.396" y2="21.7479" gradientUnits="userSpaceOnUse">
<stop stop-color="#DE2453"/>
<stop offset="1" stop-color="#FE3944"/>
</linearGradient>
<linearGradient id="paint3_linear_1_348" x1="5.02163" y1="6.98588" x2="18.3969" y2="17.9106" gradientUnits="userSpaceOnUse">
<stop stop-color="#11D574"/>
<stop offset="1" stop-color="#01F176"/>
</linearGradient>
</defs>
</svg>
