<svg width="24" height="31" viewBox="0 0 24 31" fill="none" xmlns="http://www.w3.org/2000/svg">
<path d="M22.5701 14.9079C23.3162 16.2488 24.1617 17.7662 23.9733 20.1588C23.7523 23.0861 21.9182 24.9862 18.9412 25.3674C17.6893 25.5328 16.6607 25.4386 15.9257 25.0752C15.4317 24.8334 15.0038 24.5056 14.6204 24.1407C15.0283 25.6603 15.7447 26.9063 16.4448 28.1241C16.611 28.4141 16.7749 28.6989 16.9343 28.9866C17.0582 29.2114 17.0582 29.4836 16.9328 29.7075C16.8075 29.9323 16.5769 30.0754 16.3202 30.0873C15.1106 30.1436 13.8164 30.1688 12.2441 30.1688C11.0612 30.1688 9.86344 30.1533 8.64639 30.1392L7.84392 30.1295C7.6066 30.1258 7.38558 30.0109 7.24764 29.8173C7.11043 29.623 7.07409 29.3768 7.149 29.152C7.27879 28.7656 7.48719 28.4371 7.67038 28.1478C7.73045 28.0529 7.79052 27.9587 7.84689 27.863L7.95072 27.6747C8.1213 27.3706 8.29188 27.065 8.44837 26.732L8.60856 26.3805C8.92599 25.6922 9.2538 24.9803 9.43921 24.2319C9.44663 24.2008 9.45405 24.1704 9.46146 24.1392C8.76802 24.8349 7.87878 25.426 6.65951 25.4883C4.9107 25.5625 3.57424 25.0403 3.08995 24.8238C1.22841 23.9686 0.196028 22.3088 0.0158075 19.8896C-0.0568742 18.8906 0.123347 17.7358 0.509746 16.7168C1.03261 15.318 1.97302 13.8555 2.80293 12.5621C3.22493 11.9176 3.68401 11.3035 4.12677 10.7094C4.35594 10.4068 6.24567 7.91044 6.53714 7.55074C7.94553 5.81083 9.17741 3.76536 10.3685 1.78515C10.657 1.30605 10.944 0.827681 11.2347 0.353767C11.3682 0.13498 11.6078 0 11.8652 0C12.1232 0 12.3628 0.134239 12.4978 0.353767C13.1193 1.36538 13.7749 2.35474 14.4676 3.40195L15.2382 4.56931C16.1697 5.99995 17.2458 7.38758 18.2849 8.72848C19.7556 10.6271 21.2767 12.588 22.5041 14.7929L22.5701 14.9079Z" fill="#FFEA00"/>
</svg>
